<?xml version="1.0" encoding="UTF-8" standalone="no"?>
<!-- Created with Inkscape (http://www.inkscape.org/) -->
<svg
   xmlns:dc="http://purl.org/dc/elements/1.1/"
   xmlns:cc="http://web.resource.org/cc/"
   xmlns:rdf="http://www.w3.org/1999/02/22-rdf-syntax-ns#"
   xmlns:svg="http://www.w3.org/2000/svg"
   xmlns="http://www.w3.org/2000/svg"
   xmlns:sodipodi="http://sodipodi.sourceforge.net/DTD/sodipodi-0.dtd"
   xmlns:inkscape="http://www.inkscape.org/namespaces/inkscape"
   width="297mm"
   height="210mm"
   id="svg107336"
   sodipodi:version="0.32"
   inkscape:version="0.44.1"
   sodipodi:docbase="/Users/doug/Documents/Inkscape/Clipart"
   sodipodi:docname="Medieval Heraldic Dragon.svg">
  <defs
     id="defs107338" />
  <sodipodi:namedview
     inkscape:document-units="mm"
     pagecolor="#ffffff"
     bordercolor="#666666"
     borderopacity="1.0"
     inkscape:pageopacity="0.0"
     inkscape:pageshadow="2"
     inkscape:zoom="0.43415836"
     inkscape:cx="490"
     inkscape:cy="406.4573"
     inkscape:current-layer="layer1"
     id="namedview107340"
     inkscape:window-width="823"
     inkscape:window-height="577"
     inkscape:window-x="20"
     inkscape:window-y="42" />
  <metadata
     id="metadata107342">
    <rdf:RDF>
      <cc:Work
         rdf:about="">
        <dc:format>image/svg+xml</dc:format>
        <dc:type
           rdf:resource="http://purl.org/dc/dcmitype/StillImage" />
      </cc:Work>
    </rdf:RDF>
  </metadata>
  <g
     inkscape:label="Layer 1"
     inkscape:groupmode="layer"
     id="layer1">
    <path
       style="fill:black"
       d="M 89.489461,673.16502 C 89.489461,671.8396 91.049393,667.43654 92.955959,663.38046 C 96.433193,655.983 103.70966,649.98155 109.21532,649.97022 C 111.52226,649.96546 112.01695,648.90214 111.6183,644.80514 C 111.15849,640.07973 110.37568,639.41466 102.30536,636.89308 C 91.648589,633.56334 82.726238,633.35441 74.624492,636.24488 L 68.570482,638.40477 L 71.507133,633.37651 C 76.578217,624.69363 83.665457,621.12843 95.855072,621.12843 C 104.88296,621.12843 107.07864,620.5658 109.92135,617.52395 C 112.80774,614.43537 112.98662,613.50757 111.17104,611.04155 C 110.00568,609.45868 109.39844,606.83966 109.8216,605.22147 C 111.39914,599.18896 96.343824,594.08901 91.438543,598.99428 C 87.96024,602.47258 87.254586,598.71071 90.552165,594.2689 C 96.811547,585.83753 104.15361,584.36148 115.92226,589.16849 C 118.56555,590.24816 123.64349,591.22875 127.20661,591.34753 C 131.08614,591.47688 138.69187,594.00502 146.16615,597.64963 C 178.85549,613.58964 198.88829,610.38749 222.64145,585.42538 C 230.46464,577.20401 232.06794,574.56363 232.07535,569.88927 C 232.09157,559.66456 235.38505,551.7067 242.57696,544.51477 C 248.65356,538.43818 249.32663,537.08238 247.99951,533.59178 C 247.16615,531.3999 246.48431,528.23674 246.48431,526.56258 C 246.48431,522.79831 255.56819,512.19322 258.79248,512.19322 C 260.56726,512.19322 260.90267,511.0363 260.13766,507.5532 C 259.52379,504.75832 260.11022,500.53979 261.61238,496.94464 C 262.98396,493.66193 264.10618,490.59233 264.10618,490.12328 C 264.10618,488.26318 222.57564,491.47162 212.16503,494.13598 L 201.07455,496.97433 L 195.66959,510.48451 C 190.26384,523.99667 179.96207,541.15458 176.63271,542.19099 C 175.50881,542.54086 174.53766,538.49363 173.96461,531.07162 C 171.55005,499.79972 147.8912,461.42849 109.58186,426.65215 C 87.534331,406.63791 75.908771,388.88624 66.294878,360.55498 L 61.092946,345.22539 L 59.235234,350.61238 C 58.213488,353.57521 54.952851,359.60382 51.989353,364.00929 C 49.02587,368.41477 45.724931,375.80916 44.653935,380.44128 C 42.839364,388.28938 37.414055,395.24806 33.10988,395.24806 C 32.295935,395.24806 28.95871,397.39476 25.693812,400.01851 C 18.787785,405.56835 11.945013,407.30813 3.4392414,405.67674 L -2.6248781,404.51364 L 5.8476475,400.74512 C 13.027204,397.55169 14.819737,395.84728 17.593547,389.57661 C 20.658769,382.64719 20.693268,382.04968 18.136116,380.17986 C 14.483518,377.50901 16.241354,372.26142 22.21305,368.0092 C 24.75603,366.19845 29.445324,360.42258 32.633696,355.17393 C 35.822084,349.92528 39.409273,345.08026 40.605238,344.40718 C 42.101181,343.56531 43.818838,334.05039 46.10973,313.91506 C 47.941251,297.81743 49.439746,283.29445 49.439746,281.64177 C 49.439746,279.79382 46.390498,276.68023 41.519838,273.55472 C 33.501077,268.40912 27.011903,258.57475 27.011903,251.56795 C 27.011903,249.75542 25.51657,244.89196 23.688912,240.76027 C 20.667642,233.93018 20.585969,232.91231 22.789309,229.54958 C 24.996664,226.18072 24.913068,225.24552 21.85119,219.05693 C 20.002381,215.32016 16.444864,211.01925 13.945622,209.49936 C 8.8430631,206.39631 9.4922125,204.5769 15.664501,204.68177 C 23.090342,204.80793 31.281321,208.76956 40.408356,216.64926 C 47.746829,222.98483 50.2733,226.58529 54.356281,236.52621 C 57.098662,243.20318 61.027538,252.27061 63.087126,256.67607 C 66.433513,263.83398 66.716267,264.0896 65.745253,259.07905 C 63.447673,247.22349 64.667888,228.11001 68.52934,215.46851 C 71.951398,204.2655 72.11256,202.39725 70.23533,195.69241 C 69.095138,191.62004 65.847023,185.83325 63.017304,182.83289 C 58.846694,178.41075 58.419349,177.37765 60.760713,177.37765 C 69.56028,177.37765 78.661216,184.40139 87.45643,197.98038 C 95.879995,210.98559 96.489515,214.67556 92.459174,228.26671 C 90.560656,234.6689 89.450014,240.34976 89.991087,240.89083 C 90.532159,241.43189 93.579406,239.79821 96.762769,237.26042 C 108.92141,227.56744 111.67265,223.91954 113.51399,215.04982 C 115.49586,205.50323 117.51533,204.90183 122.0145,212.51831 C 125.36429,218.18905 125.44323,223.02202 122.33022,231.84525 C 121.00857,235.59118 119.92724,242.24418 119.92724,246.62971 C 119.92724,253.80463 119.32541,255.15066 113.91978,260.06615 C 110.61567,263.07065 104.84851,268.31824 101.10387,271.72743 C 92.857152,279.2354 92.572413,282.56271 99.139166,294.6869 C 103.90795,303.49152 108.99308,323.26394 111.0569,341.02636 C 111.99899,349.13469 112.60814,350.28985 116.87351,352.05662 C 123.08798,354.63074 127.62484,360.5491 129.69945,368.78819 C 131.21902,374.82292 132.00096,375.58965 138.37408,377.2942 C 145.86921,379.29884 156.00288,387.09406 157.5821,392.06977 C 158.39298,394.6246 159.14324,394.82932 162.34658,393.36978 C 167.10999,391.19943 172.1512,392.42691 179.80462,397.62067 C 184.43414,400.76235 186.46015,401.3131 188.79362,400.06425 C 190.45048,399.17754 194.01615,398.45204 196.71736,398.45204 C 200.53167,398.45204 201.62864,397.74885 201.62864,395.30382 C 201.62864,393.57228 203.84475,389.63157 206.55333,386.54668 L 211.47802,380.93776 L 206.75133,374.87651 C 200.60373,366.99315 198.42466,360.09044 198.42466,348.49989 C 198.42466,338.77296 201.3466,329.49767 206.04702,324.30377 C 208.03776,322.10402 208.78776,318.11503 208.91948,309.02625 C 209.14501,293.46484 212.09918,283.95907 218.78871,277.26952 C 223.08518,272.97307 224.06296,270.73653 224.09165,265.1399 C 224.13681,256.33334 228.53743,246.92331 235.87578,239.94143 C 240.452,235.5875 241.67835,233.19931 241.67835,228.64157 C 241.67835,221.78732 248.72627,206.84103 253.04937,204.52736 C 255.37314,203.28373 256.09625,201.12915 256.09625,195.44895 C 256.09625,183.84588 264.11363,170.16622 272.56504,167.34908 C 273.9139,166.89946 273.57712,164.68992 271.3889,159.63293 C 269.70247,155.73559 267.84668,151.97426 267.26494,151.27447 C 265.34429,148.96405 248.5471,156.54324 241.14168,163.06177 C 237.1408,166.58349 232.15394,173.06996 230.05974,177.47615 L 226.25214,185.48744 L 222.26303,178.23353 L 218.27392,170.97961 L 211.44338,188.62316 C 207.68659,198.32711 203.93628,205.84855 203.10936,205.33749 C 199.71364,203.23883 196.58784,194.31486 197.04342,188.01965 C 197.3319,184.03349 196.45774,179.4002 194.85477,176.4192 C 193.38684,173.68933 191.29886,166.64221 190.21482,160.75893 C 188.60949,152.04648 187.62795,149.94221 184.92382,149.41577 C 179.55304,148.3702 93.871308,145.22801 93.052705,146.04661 C 92.641624,146.45769 94.561461,150.79177 97.319007,155.67788 C 100.07657,160.56401 101.93034,164.56174 101.4385,164.56174 C 99.006441,164.56174 89.285081,158.51639 80.678517,151.65188 C 57.218483,132.94036 34.942272,104.66915 27.874641,84.637316 L 25.525886,77.980231 L 32.799714,82.984762 C 46.624565,92.496519 67.236051,100.85068 91.554119,106.79884 L 115.28026,112.60221 L 103.96067,118.0783 C 95.783143,122.03433 93.288895,123.91692 94.974955,124.86049 C 98.337423,126.74221 174.85638,126.48231 198.46142,124.509 C 209.45487,123.58997 227.10025,121.74725 237.67338,120.41407 C 272.73336,115.99331 271.16767,116.59762 265.66982,109.60826 C 261.07268,103.76391 246.82399,97.247145 236.25853,96.156677 L 227.26045,95.227996 L 227.26045,101.95092 C 227.26045,108.57824 227.20984,108.63838 223.70001,106.18 C 218.80079,102.74846 217.64852,103.03619 217.64852,107.69116 C 217.64852,111.9672 216.15406,112.76485 213.36605,109.97684 C 212.14169,108.75247 211.34896,109.44418 210.61215,112.37982 C 209.54734,116.62241 207.37705,117.72106 205.63361,114.90011 C 204.16049,112.51655 201.62864,112.96315 201.62864,115.60656 C 201.62864,119.297 198.46363,120.23791 195.3941,117.46003 C 193.83833,116.05206 191.07832,114.90011 189.26076,114.90011 C 187.09986,114.90011 185.61891,113.5567 184.9819,111.01861 C 183.54343,105.28727 176.10599,97.160356 169.94264,94.585154 C 163.28494,91.803388 136.18351,91.527308 116.12534,94.036919 C 108.30721,95.015095 101.55683,95.461728 101.12453,95.029404 C 99.239715,93.144585 118.37648,77.418497 128.6654,72.397045 C 145.94097,63.965768 155.582,62.02452 200.34152,57.964842 C 211.06416,56.992317 211.07091,56.988575 214.35907,50.196154 C 216.4532,45.870262 219.8321,42.182784 223.65612,40.050045 C 235.96721,33.183892 241.05219,32.759418 285.6644,34.873816 L 327.38473,36.851166 L 335.9637,31.014884 C 340.68213,27.804933 349.6933,23.66006 355.98854,21.804076 C 387.03558,12.650651 394.51365,10.02879 399.79356,6.4457492 L 405.5176,2.5613118 L 404.41315,12.673543 C 403.80571,18.235279 402.89449,25.48913 402.3882,28.793231 C 401.52226,34.444654 401.7172,34.800695 405.67741,34.800695 C 407.99277,34.800695 409.88713,35.426327 409.88713,36.191006 C 409.88713,36.955685 403.16449,42.014201 394.94791,47.432179 C 380.3323,57.069652 373.0414,65.351711 373.0414,72.316732 C 373.0414,75.842362 386.22585,98.84127 388.26029,98.864483 C 392.66583,98.914726 409.78185,108.70415 413.80346,113.47376 L 418.38302,118.90509 L 408.12762,119.83516 C 395.07435,121.01899 391.06908,122.36239 388.98549,126.25562 C 386.61998,130.67563 388.15564,132.31227 399.49115,137.45205 C 407.2701,140.97919 410.5676,143.61707 414.36569,149.35114 C 418.61967,155.77349 422.55053,168.45221 420.82321,170.17954 C 420.49545,170.50729 415.9183,168.91867 410.65174,166.64926 C 405.38519,164.37983 398.11536,162.19645 394.49659,161.7973 C 388.79771,161.1687 387.45746,161.65571 384.48416,165.43568 C 380.00689,171.12758 379.96083,180.36518 384.3817,185.9854 C 386.2134,188.31404 391.62052,192.06826 396.39752,194.32815 C 402.87781,197.39381 406.05442,200.13598 408.90928,205.12872 C 413.06966,212.40467 417.05113,223.61326 415.88832,224.77608 C 415.48897,225.17542 409.76101,222.93714 403.15951,219.80209 C 380.8917,209.22716 373.0414,210.72866 373.0414,225.56268 C 373.0414,235.12483 378.08194,241.69271 389.03741,246.40563 C 398.56757,250.50538 404.69638,256.75462 406.10772,263.81135 C 407.08498,268.69762 406.89144,269.1065 404.1337,267.98188 C 398.62429,265.73514 388.34617,265.17491 383.93155,266.88073 C 381.55074,267.80067 378.49824,270.68932 377.14823,273.29997 C 374.86704,277.71132 374.96124,278.75834 378.48179,288.12328 C 380.56528,293.66548 383.04069,298.45689 383.9827,298.77089 C 384.92473,299.08491 402.49269,296.01738 423.02261,291.95416 C 460.11588,284.61281 460.38178,284.53088 465.45776,278.87871 C 474.44077,268.8761 475.91514,261.96271 477.02556,224.6363 C 477.97758,192.63575 478.23452,190.54767 482.29243,181.83426 C 484.63876,176.79612 490.03314,168.94784 494.27997,164.39365 C 514.03297,143.21098 582.5872,92.119556 640.57345,55.365495 C 674.76659,33.692482 733.6396,-0.82625229 734.66378,0.19794761 C 734.88689,0.42103958 733.2009,4.4767785 730.91719,9.2107012 C 720.37278,31.068197 718.21179,55.169973 725.61531,68.342774 C 729.7531,75.704994 741.92423,82.860345 750.30944,82.860345 C 759.10606,82.860345 800.83155,67.463176 882.40851,34.11436 C 903.07838,25.6645 919.29852,19.365801 918.45325,20.117278 C 917.60801,20.86874 909.7075,27.150824 900.89657,34.077464 C 862.1335,64.5507 843.92268,89.049844 846.0441,107.8709 C 847.16386,117.80547 853.22652,124.88513 866.15135,131.35117 L 877.07248,136.8148 L 865.41932,141.26395 C 849.57366,147.3138 827.02561,162.21001 814.55233,174.86888 C 802.43058,187.17098 794.40385,199.79098 789.52161,214.22338 C 783.06187,233.31912 787.41949,258.37386 799.73493,272.94605 L 804.00797,278.00212 L 791.57673,277.18598 C 763.66012,275.35319 730.33481,290.55916 719.36889,310.1336 L 715.66191,316.75064 L 745.0007,316.75516 C 777.09411,316.76009 797.06905,318.65293 814.36365,323.32805 C 837.06189,329.46389 854.75826,331.419 881.67271,330.76445 C 910.13703,330.0722 920.82733,327.36302 931.26824,318.19577 C 936.18227,313.8812 941.44544,304.70088 939.8943,303.14975 C 939.51905,302.77451 932.75374,303.51578 924.86026,304.797 C 875.33627,312.83551 847.92156,300.45582 842.64146,267.66941 C 838.97101,244.87795 849.69644,226.76133 873.37503,215.75651 C 896.51781,205.00073 929.7332,206.40772 954.89985,219.20983 C 958.16885,220.87275 961.27332,222.23332 961.79868,222.23332 C 963.01276,222.23332 978.64725,189.71381 977.82735,188.89391 C 977.49201,188.55854 969.41702,189.12407 959.88295,190.15061 C 944.7949,191.77514 925.74313,191.26314 922.15689,189.13674 C 921.51476,188.75599 938.47353,170.99588 959.84306,149.66981 C 981.21257,128.34374 1007.274,100.98722 1017.7574,88.877534 C 1028.2408,76.76785 1037.0381,67.079996 1037.3071,67.348975 C 1037.5761,67.617938 1037.0692,77.886311 1036.1807,90.167571 C 1033.3182,129.7342 1038.832,188.6134 1047.9439,215.78159 L 1051.6443,226.81482 L 1046.3751,224.61323 C 1034.7032,219.73637 1016.0117,203.44819 1010.7019,193.52679 C 1009.6196,191.50431 1008.1503,190.46764 1007.437,191.22305 C 1006.7237,191.97848 1002.0626,205.19386 997.07911,220.59058 L 988.01823,248.58464 L 992.11656,260.98487 C 1007.2957,306.91221 981.4034,350.61495 921.16384,380.74363 C 898.00881,392.32456 871.85752,399.86059 840.16731,404.08444 L 832.30364,405.13256 L 852.98321,416.38611 C 887.57545,435.21079 909.76072,448.0755 925.72738,458.56875 C 941.09235,468.66657 957.76715,484.36955 957.76715,488.7412 C 957.76715,492.04638 949.63248,493.49361 942.28182,491.49619 C 938.904,490.57829 931.08368,485.96473 924.90338,481.24379 C 918.72305,476.52287 911.94548,471.73925 909.84207,470.61355 C 906.36933,468.75498 906.12424,468.84171 907.17634,471.55666 C 909.87899,478.53077 914.45128,501.06835 915.42047,512.19322 C 915.99616,518.80142 915.63314,531.05664 914.61373,539.42703 C 912.31494,558.30239 904.30023,597.57712 901.21022,605.10855 C 898.62912,611.39956 898.82379,612.74725 903.68164,622.21924 C 906.79393,628.28768 908.36647,629.40018 920.41828,634.05948 C 927.73415,636.88786 934.53297,640.1817 935.52675,641.37911 C 936.52053,642.57656 938.66205,643.55627 940.2857,643.55627 C 944.43348,643.55627 954.62088,652.91504 957.20479,659.09918 C 960.51636,667.02489 959.82594,668.25529 954.55557,663.82054 C 948.00789,658.31104 936.27014,656.58041 929.97082,660.19571 C 925.35906,662.84251 925.12465,662.78826 914.69387,656.66144 C 908.86753,653.23913 901.65006,649.61135 898.65504,648.59966 C 889.52246,645.51481 875.24722,646.35495 864.32408,650.6201 C 858.88722,652.74305 852.85233,654.94306 850.91321,655.50904 C 846.58498,656.77232 834.58713,653.73914 830.89967,650.44943 C 827.40554,647.33221 812.55862,647.41072 804.95762,650.58663 C 801.86744,651.87778 795.15588,655.77495 790.04303,659.24702 C 782.11489,664.63092 779.21468,665.66074 770.33426,666.24526 C 763.57639,666.69009 756.60281,668.4595 750.4662,671.2864 C 745.26575,673.68205 740.65506,675.28635 740.2202,674.85149 C 739.78533,674.41665 741.17619,670.62158 743.31093,666.418 C 746.04521,661.03391 749.07331,657.80777 753.55696,655.50185 C 757.05751,653.70153 762.14109,649.98479 764.85379,647.24242 C 769.71964,642.32343 778.54079,638.823 786.35439,638.71052 C 789.38359,638.66692 789.77388,638.32105 787.95638,637.29097 C 786.63475,636.54193 776.18177,635.60569 764.72756,635.21043 C 752.34477,634.78313 742.36612,633.66874 740.11402,632.46165 C 734.80086,629.61389 723.35099,631.6437 717.64509,636.44489 L 713.0001,640.35339 L 714.33924,634.3454 C 715.87447,627.45753 722.32009,621.30222 731.40602,618.04725 C 734.75427,616.84776 739.21299,614.5272 741.31427,612.89043 C 746.50764,608.84516 759.82515,608.97608 770.48348,613.1772 C 783.73893,618.40201 781.25093,615.70754 767.56265,610.01397 C 750.82763,603.05311 747.52911,600.81195 748.68042,597.18446 C 749.39278,594.94004 748.4077,593.82425 744.51607,592.46763 C 737.70462,590.09314 733.58625,590.24178 728.18918,593.05682 C 723.84647,595.32193 723.7259,595.27997 724.71001,591.84546 C 725.27069,589.88868 727.84711,586.3052 730.43537,583.8822 C 734.36246,580.20585 736.56704,579.47673 743.75559,579.47673 C 749.93489,579.47673 752.6305,578.79749 753.29196,577.07374 C 755.40402,571.56978 762.22959,574.5473 774.75754,586.43767 C 797.15635,607.69658 814.39274,615.73941 828.96069,611.7299 C 837.5089,609.3772 847.74814,601.87161 852.77759,594.27163 C 856.2962,588.95464 856.58534,587.49288 855.14803,582.28745 C 853.27621,575.50824 855.8775,568.64007 861.91982,564.40785 C 864.9169,562.30862 865.3603,560.64224 865.03619,552.69619 C 864.82834,547.60089 865.31832,541.6481 866.12499,539.46777 C 867.15726,536.67771 866.86875,533.83075 865.15091,529.85585 C 863.80848,526.74961 862.58064,518.80142 862.4224,512.19322 L 862.13468,500.17831 L 854.28183,492.31515 C 847.39092,485.41521 845.54588,484.41628 839.22001,484.16041 C 835.25509,484.00006 829.67873,482.65938 826.82811,481.18117 C 822.4488,478.91023 820.51272,478.77864 814.34181,480.33251 C 804.86564,482.71862 793.9308,481.14265 785.44077,476.16717 C 779.19102,472.50458 777.95929,472.32349 769.69167,473.85184 C 758.99063,475.83003 745.32045,473.76968 737.14586,468.94653 C 733.99232,467.0859 728.83053,465.73556 724.87166,465.73556 C 714.44423,465.73556 703.42976,461.23859 695.68774,453.82043 C 688.76723,447.18943 682.04384,443.26117 670.67697,439.20743 L 664.73574,437.08862 L 651.11282,450.34842 C 643.62021,457.64134 636.74192,465.57562 635.82772,467.98017 C 633.11689,475.11016 633.94595,485.22172 637.94561,493.8108 L 641.69442,501.86119 L 663.96228,510.24196 C 676.20959,514.85139 689.97545,519.31265 694.55304,520.15587 C 715.54281,524.02234 727.08083,535.3269 727.08083,552.02546 L 727.08083,558.31887 L 704.97163,550.80429 L 682.86241,543.28969 L 675.75575,553.77377 C 671.84709,559.54 661.79139,571.20409 653.40978,579.69397 C 631.00912,602.38391 604.18203,618.74971 574.71981,627.69859 C 560.86479,631.90692 562.45507,633.77406 580.99015,635.0606 C 589.50468,635.65161 595.2958,637.0191 599.72274,639.48403 C 603.24712,641.44641 609.49361,643.96286 613.60384,645.07615 C 623.42619,647.73661 630.69826,654.07446 632.0487,661.15145 L 633.11354,666.73174 L 627.9854,662.41669 C 620.66371,656.2559 613.76514,655.36847 604.83155,659.43819 C 593.0161,664.82076 593.59311,664.96492 565.28001,649.55534 C 551.82099,642.2302 547.08356,641.42874 537.2452,644.81261 C 530.05577,647.28538 528.55613,647.32898 522.60543,645.23829 C 516.93622,643.24649 513.45443,643.20875 498.57561,644.97781 C 474.29148,647.86514 462.02769,651.19276 452.81029,657.39559 C 445.2574,662.47831 444.66054,662.61919 440.27887,660.35334 C 432.35905,656.25784 422.00331,658.30512 416.38274,665.07747 C 413.19656,668.91661 411.48912,668.08727 411.48912,662.70057 C 411.48912,655.21827 415.57539,648.82988 421.8014,646.57852 C 424.84676,645.47729 426.99759,644.02484 426.58103,643.35081 C 426.16446,642.6768 421.52289,639.76098 416.26644,636.87123 C 410.31032,633.59685 406.85522,630.69743 407.09669,629.17625 C 407.71857,625.25859 395.40597,626.22255 389.30126,630.5695 C 383.12123,634.97004 382.48558,632.21248 387.85979,624.31612 C 393.50287,616.0247 399.48109,612.40478 407.99976,612.121 C 412.15991,611.98244 418.21588,611.13675 421.45746,610.2417 C 428.93751,608.17635 436.23302,609.82332 444.84261,615.52086 C 450.27713,619.11726 453.97626,620.16406 463.38394,620.76781 C 470.75708,621.24098 475.52848,620.88749 476.18873,619.81915 C 477.67423,617.41559 468.1702,607.07898 461.30244,603.62878 C 458.13519,602.03762 452.68512,600.21605 449.19121,599.58084 C 439.79045,597.87175 433.87785,594.26056 432.09184,589.13718 C 431.17691,586.51265 428.57312,583.78504 425.94242,582.69537 C 422.09602,581.10214 420.18744,581.33293 413.78392,584.16552 C 409.60617,586.01352 405.93352,587.27104 405.62248,586.95999 C 404.41196,585.74949 412.59776,575.40593 416.34317,573.41334 C 418.85064,572.07934 423.65035,571.57285 429.44631,572.03068 C 436.04663,572.55204 439.11125,572.12818 440.45588,570.50797 C 441.48071,569.27314 443.26229,568.26281 444.41495,568.26281 C 448.11379,568.26281 458.0864,575.25108 465.58423,583.09709 C 473.18371,591.04946 490.84231,601.01833 500.55821,602.84104 C 504.1422,603.5134 510.46839,602.69432 518.46837,600.52214 C 525.27125,598.67498 535.02184,596.73179 540.13633,596.20393 C 547.99585,595.39275 549.65876,594.65669 550.87824,591.44921 C 552.62823,586.84638 558.06881,583.08165 564.96325,581.70277 C 567.84895,581.12563 570.08596,579.68158 570.08596,578.39594 C 570.08596,573.79858 575.08051,566.64506 580.12551,564.01667 L 585.30485,561.31827 L 581.20632,560.20522 C 574.57647,558.40471 570.36866,555.65731 569.35645,552.46814 C 568.56589,549.97727 566.23864,549.34629 555.23055,548.63821 C 547.98189,548.17195 538.97807,546.5476 535.22205,545.02852 C 528.4345,542.28338 522.02631,535.46246 522.02631,530.98286 C 522.02631,529.69119 518.51841,527.18245 514.20689,525.39068 C 497.41016,518.41026 487.30263,504.74437 488.90842,491.18588 L 489.81946,483.49358 L 479.89058,484.31132 C 474.42968,484.76107 467.83509,484.50799 465.2359,483.74892 C 461.04652,482.52545 459.319,483.27241 450.01699,490.32938 C 444.2458,494.7077 434.96073,500.43175 429.38349,503.0495 C 420.54165,507.19953 418.00737,507.69698 409.59364,506.93405 C 400.59121,506.11775 399.49567,506.39901 393.25468,511.12863 C 389.57544,513.91689 384.03372,517.54238 380.93976,519.1853 C 376.24243,521.67961 374.9948,523.51776 373.37722,530.32736 C 371.37418,538.75964 360.4478,563.5006 358.77138,563.3998 C 357.01118,563.29396 342.74407,530.69649 340.285,521.16216 C 338.94391,515.9625 337.57702,511.4386 337.24748,511.10905 C 336.91792,510.77949 333.86456,513.95243 330.46225,518.15998 C 327.05991,522.36756 311.97613,538.42578 296.9427,553.84492 C 274.90222,576.45092 268.43966,584.12764 263.56948,593.48826 C 257.63793,604.88878 251.29028,621.29617 251.29028,625.22748 C 251.29028,628.03858 258.87908,630.3558 275.02945,632.47622 C 282.6786,633.48046 290.73924,635.21438 292.94198,636.32933 C 295.14471,637.44428 300.47724,639.70667 304.79205,641.35687 C 313.07747,644.52567 317.73127,649.43391 319.50045,656.86953 L 320.57173,661.37184 L 315.16729,658.07699 C 308.26027,653.86611 300.95208,653.88772 292.60967,658.14368 C 287.43274,660.78477 283.88153,661.37988 276.25313,660.88469 C 266.24498,660.23505 260.08363,657.68303 247.95373,649.16322 C 239.11309,642.95375 226.03325,642.37578 218.35181,647.85521 C 211.18986,652.96408 205.80872,653.81315 195.05527,651.53111 C 183.15325,649.00533 176.05189,650.79539 162.66142,659.69677 C 157.52969,663.10812 150.6812,666.63519 147.44253,667.53472 C 139.06587,669.8613 127.81327,669.53249 123.13122,666.82431 C 120.92847,665.55022 118.21969,664.03984 117.11169,663.46792 C 113.3096,661.50539 103.97453,664.51815 96.735006,670.04422 C 91.668381,673.91166 89.489461,674.85016 89.489461,673.16502 z M 786.35439,617.92445 C 785.03276,617.07034 783.23053,616.37153 782.34943,616.37153 C 781.46834,616.37153 781.82878,617.07034 783.15043,617.92445 C 784.47206,618.77856 786.27429,619.47737 787.15539,619.47737 C 788.03648,619.47737 787.67604,618.77856 786.35439,617.92445 z M 258.89973,71.663978 C 266.11473,67.26492 265.56471,64.277828 257.29774,62.963631 C 253.55308,62.368344 248.86727,61.477155 246.88481,60.983211 C 241.81968,59.721243 242.01763,65.72339 247.2125,70.918251 C 251.95253,75.658278 252.31106,75.681155 258.89973,71.663978 z "
       id="path107403" />
  </g>
</svg>
